# 3ds Max Wavefront OBJ Exporter v0.97b - (c)2007 guruware
# 创建的文件:21.04.2019 11:27:24

#
# object Sphere001
#

v  0.00 0.05 -0.01
v  -0.01 0.05 0.01
v  0.01 0.05 -0.01
v  -0.02 0.05 -0.01
v  0.01 0.05 0.01
v  0.01 0.04 -0.03
v  -0.04 0.03 0.02
v  0.03 0.04 0.01
v  0.02 0.04 -0.02
v  -0.01 0.03 -0.04
v  -0.03 0.03 -0.03
v  -0.04 0.03 -0.01
v  -0.02 0.03 0.04
v  0.00 0.03 0.04
v  0.02 0.03 0.04
v  0.05 0.02 -0.01
v  0.04 0.02 0.03
v  0.04 0.02 -0.03
v  0.01 0.03 -0.04
v  -0.03 0.02 -0.03
v  -0.05 0.02 -0.01
v  -0.05 0.02 0.01
v  -0.04 0.01 0.03
v  -0.02 0.01 0.05
v  0.01 0.01 0.05
v  0.04 0.01 0.04
v  0.05 0.01 0.01
v  0.03 0.01 -0.04
v  -0.01 -0.01 -0.05
v  -0.03 0.00 -0.04
v  -0.04 0.01 -0.03
v  -0.05 0.01 -0.02
v  -0.05 0.01 -0.00
v  -0.03 0.01 0.04
v  0.00 0.01 0.05
v  0.03 0.01 0.04
v  0.05 0.01 0.02
v  0.05 0.01 -0.01
v  0.04 0.01 -0.03
v  0.01 -0.01 -0.05
v  -0.04 0.00 -0.03
v  -0.05 -0.01 -0.00
v  -0.05 0.00 0.01
v  -0.04 0.00 0.03
v  -0.03 0.00 0.04
v  0.00 -0.01 0.05
v  0.03 -0.01 0.04
v  0.05 -0.01 0.02
v  -0.03 -0.01 -0.04
v  -0.04 -0.01 -0.03
v  -0.05 -0.01 -0.02
v  -0.03 -0.02 0.04
v  -0.02 -0.01 0.05
v  0.01 -0.01 0.05
v  0.04 -0.01 0.04
v  0.05 -0.01 0.01
v  0.05 -0.01 -0.01
v  0.04 -0.01 -0.03
v  0.03 -0.01 -0.04
v  -0.01 -0.02 -0.05
v  -0.02 -0.03 -0.04
v  -0.04 -0.03 -0.02
v  -0.05 -0.02 -0.00
v  -0.05 -0.02 0.01
v  -0.04 -0.02 0.03
v  -0.01 -0.02 0.05
v  0.01 -0.02 0.05
v  0.03 -0.02 0.04
v  0.04 -0.02 0.03
v  0.05 -0.02 0.01
v  0.05 -0.02 -0.01
v  0.01 -0.02 -0.05
v  -0.01 -0.03 -0.04
v  -0.04 -0.03 0.01
v  -0.03 -0.03 0.03
v  -0.01 -0.03 0.04
v  0.02 -0.03 0.04
v  0.04 -0.03 0.02
v  0.04 -0.03 -0.00
v  0.04 -0.03 -0.02
v  0.02 -0.03 -0.04
v  0.01 -0.04 -0.03
v  -0.01 -0.04 -0.03
v  -0.03 -0.04 -0.02
v  -0.04 -0.04 -0.00
v  -0.03 -0.04 0.02
v  -0.01 -0.04 0.03
v  0.01 -0.04 0.04
v  0.03 -0.04 0.03
v  0.04 -0.04 0.01
v  0.03 -0.04 -0.01
v  0.02 -0.04 -0.03
v  -0.02 -0.05 -0.01
v  -0.03 -0.04 0.01
v  0.00 -0.05 0.02
v  0.03 -0.04 0.01
v  0.00 -0.05 -0.02
v  -0.02 -0.05 0.01
v  0.02 -0.05 0.00
v  0.01 -0.05 -0.02
v  -0.01 -0.05 -0.01
v  -0.00 -0.05 0.01
v  0.01 -0.05 -0.01
# 103 vertices

vn -0.05 0.97 -0.25
vn -0.17 0.95 0.26
vn 0.21 0.97 -0.10
vn -0.41 0.90 -0.16
vn 0.22 0.91 0.35
vn 0.08 0.83 -0.56
vn -0.70 0.64 0.32
vn 0.59 0.79 0.20
vn 0.52 0.79 -0.32
vn -0.19 0.52 -0.83
vn -0.54 0.63 -0.56
vn -0.76 0.63 -0.16
vn -0.43 0.63 0.64
vn -0.01 0.63 0.78
vn 0.43 0.60 0.67
vn 0.87 0.48 -0.13
vn 0.77 0.46 0.45
vn 0.71 0.47 -0.52
vn 0.21 0.50 -0.84
vn -0.63 0.37 -0.68
vn -0.90 0.39 -0.21
vn -0.90 0.38 0.20
vn -0.82 0.22 0.52
vn -0.32 0.22 0.92
vn 0.24 0.20 0.95
vn 0.71 0.17 0.68
vn 0.95 0.25 0.15
vn 0.49 0.23 -0.84
vn -0.17 -0.07 -0.98
vn -0.50 0.08 -0.86
vn -0.79 0.24 -0.56
vn -0.91 0.21 -0.35
vn -0.99 0.17 -0.02
vn -0.58 0.24 0.78
vn -0.05 0.19 0.98
vn 0.51 0.19 0.84
vn 0.90 0.19 0.39
vn 0.97 0.14 -0.19
vn 0.82 0.14 -0.55
vn 0.17 -0.07 -0.98
vn -0.82 -0.00 -0.58
vn -0.99 -0.16 -0.04
vn -0.97 0.00 0.24
vn -0.84 -0.04 0.55
vn -0.59 -0.04 0.81
vn -0.04 -0.15 0.99
vn 0.52 -0.16 0.84
vn 0.90 -0.15 0.41
vn -0.55 -0.23 -0.80
vn -0.78 -0.25 -0.58
vn -0.92 -0.20 -0.33
vn -0.53 -0.38 0.76
vn -0.36 -0.17 0.92
vn 0.24 -0.14 0.96
vn 0.71 -0.19 0.68
vn 0.98 -0.14 0.14
vn 0.97 -0.14 -0.19
vn 0.81 -0.18 -0.55
vn 0.55 -0.19 -0.81
vn -0.19 -0.38 -0.91
vn -0.49 -0.55 -0.68
vn -0.78 -0.53 -0.33
vn -0.91 -0.41 -0.06
vn -0.91 -0.34 0.24
vn -0.78 -0.35 0.51
vn -0.18 -0.38 0.91
vn 0.18 -0.41 0.89
vn 0.52 -0.40 0.75
vn 0.77 -0.38 0.52
vn 0.89 -0.41 0.18
vn 0.89 -0.40 -0.20
vn 0.17 -0.40 -0.90
vn -0.13 -0.60 -0.79
vn -0.80 -0.58 0.17
vn -0.56 -0.58 0.59
vn -0.17 -0.59 0.79
vn 0.32 -0.57 0.76
vn 0.69 -0.57 0.45
vn 0.82 -0.58 -0.02
vn 0.69 -0.55 -0.47
vn 0.32 -0.56 -0.77
vn 0.19 -0.81 -0.55
vn -0.20 -0.82 -0.53
vn -0.57 -0.72 -0.40
vn -0.70 -0.72 -0.02
vn -0.59 -0.70 0.41
vn -0.22 -0.82 0.53
vn 0.13 -0.72 0.69
vn 0.48 -0.72 0.51
vn 0.70 -0.70 0.13
vn 0.53 -0.82 -0.22
vn 0.42 -0.70 -0.58
vn -0.35 -0.92 -0.20
vn -0.51 -0.84 0.19
vn 0.11 -0.92 0.38
vn 0.50 -0.84 0.23
vn 0.02 -0.92 -0.39
vn -0.31 -0.93 0.19
vn 0.35 -0.93 0.08
vn 0.26 -0.92 -0.30
vn -0.17 -0.98 -0.11
vn -0.03 -0.98 0.19
vn 0.18 -0.98 -0.08
# 103 vertex normals

g Sphere001
f 1//1 2//2 3//3 
f 1//1 4//4 2//2 
f 2//2 5//5 3//3 
f 1//1 6//6 4//4 
f 4//4 7//7 2//2 
f 5//5 8//8 3//3 
f 3//3 8//8 9//9 
f 3//3 9//9 6//6 
f 3//3 6//6 1//1 
f 6//6 10//10 11//11 
f 6//6 11//11 4//4 
f 4//4 11//11 12//12 
f 4//4 12//12 7//7 
f 7//7 13//13 2//2 
f 2//2 13//13 14//14 
f 2//2 14//14 5//5 
f 5//5 14//14 15//15 
f 5//5 15//15 8//8 
f 8//8 16//16 9//9 
f 15//15 17//17 8//8 
f 8//8 17//17 16//16 
f 16//16 18//18 9//9 
f 9//9 18//18 19//19 
f 9//9 19//19 6//6 
f 6//6 19//19 10//10 
f 10//10 20//20 11//11 
f 11//11 20//20 21//21 
f 11//11 21//21 12//12 
f 12//12 21//21 22//22 
f 12//12 22//22 7//7 
f 7//7 22//22 23//23 
f 7//7 23//23 13//13 
f 13//13 24//24 14//14 
f 14//14 25//25 15//15 
f 15//15 26//26 17//17 
f 17//17 27//27 16//16 
f 18//18 28//28 19//19 
f 10//10 29//29 30//30 
f 10//10 30//30 20//20 
f 20//20 30//30 31//31 
f 20//20 31//31 32//32 
f 20//20 32//32 21//21 
f 21//21 32//32 33//33 
f 21//21 33//33 22//22 
f 23//23 34//34 13//13 
f 13//13 34//34 24//24 
f 24//24 35//35 14//14 
f 14//14 35//35 25//25 
f 25//25 36//36 15//15 
f 15//15 36//36 26//26 
f 26//26 37//37 17//17 
f 17//17 37//37 27//27 
f 27//27 38//38 16//16 
f 16//16 38//38 39//39 
f 16//16 39//39 18//18 
f 18//18 39//39 28//28 
f 28//28 40//40 19//19 
f 19//19 40//40 29//29 
f 19//19 29//29 10//10 
f 30//30 41//41 31//31 
f 31//31 41//41 32//32 
f 32//32 42//42 33//33 
f 33//33 42//42 43//43 
f 33//33 43//43 22//22 
f 22//22 43//43 44//44 
f 22//22 44//44 23//23 
f 23//23 44//44 45//45 
f 23//23 45//45 34//34 
f 34//34 45//45 24//24 
f 24//24 46//46 35//35 
f 35//35 46//46 25//25 
f 25//25 47//47 36//36 
f 36//36 47//47 26//26 
f 26//26 48//48 37//37 
f 37//37 48//48 27//27 
f 29//29 49//49 30//30 
f 30//30 49//49 50//50 
f 30//30 50//50 41//41 
f 41//41 50//50 51//51 
f 41//41 51//51 32//32 
f 32//32 51//51 42//42 
f 44//44 52//52 45//45 
f 45//45 52//52 53//53 
f 45//45 53//53 24//24 
f 24//24 53//53 46//46 
f 46//46 54//54 25//25 
f 25//25 54//54 47//47 
f 47//47 55//55 26//26 
f 26//26 55//55 48//48 
f 48//48 56//56 27//27 
f 27//27 56//56 57//57 
f 27//27 57//57 38//38 
f 38//38 57//57 58//58 
f 38//38 58//58 39//39 
f 39//39 58//58 59//59 
f 39//39 59//59 28//28 
f 28//28 59//59 40//40 
f 29//29 60//60 49//49 
f 49//49 60//60 61//61 
f 49//49 61//61 50//50 
f 50//50 62//62 51//51 
f 51//51 62//62 63//63 
f 51//51 63//63 42//42 
f 42//42 63//63 64//64 
f 42//42 64//64 43//43 
f 43//43 64//64 65//65 
f 43//43 65//65 44//44 
f 44//44 65//65 52//52 
f 52//52 66//66 53//53 
f 53//53 66//66 46//46 
f 46//46 66//66 67//67 
f 46//46 67//67 54//54 
f 54//54 67//67 68//68 
f 54//54 68//68 47//47 
f 47//47 68//68 69//69 
f 47//47 69//69 55//55 
f 55//55 69//69 48//48 
f 48//48 69//69 70//70 
f 48//48 70//70 56//56 
f 56//56 70//70 71//71 
f 56//56 71//71 57//57 
f 57//57 71//71 58//58 
f 59//59 72//72 40//40 
f 40//40 72//72 60//60 
f 40//40 60//60 29//29 
f 60//60 73//73 61//61 
f 50//50 61//61 62//62 
f 63//63 62//62 74//74 
f 63//63 74//74 64//64 
f 64//64 74//74 65//65 
f 65//65 74//74 75//75 
f 65//65 75//75 52//52 
f 52//52 75//75 76//76 
f 52//52 76//76 66//66 
f 66//66 76//76 67//67 
f 67//67 76//76 77//77 
f 67//67 77//77 68//68 
f 68//68 77//77 78//78 
f 68//68 78//78 69//69 
f 69//69 78//78 70//70 
f 70//70 78//78 79//79 
f 70//70 79//79 71//71 
f 71//71 79//79 80//80 
f 71//71 80//80 58//58 
f 58//58 80//80 59//59 
f 59//59 80//80 81//81 
f 59//59 81//81 72//72 
f 72//72 81//81 73//73 
f 72//72 73//73 60//60 
f 73//73 82//82 83//83 
f 73//73 83//83 61//61 
f 61//61 83//83 84//84 
f 61//61 84//84 62//62 
f 62//62 84//84 85//85 
f 62//62 85//85 74//74 
f 74//74 85//85 86//86 
f 74//74 86//86 75//75 
f 75//75 86//86 87//87 
f 75//75 87//87 76//76 
f 76//76 87//87 88//88 
f 76//76 88//88 77//77 
f 77//77 88//88 89//89 
f 77//77 89//89 78//78 
f 78//78 89//89 90//90 
f 78//78 90//90 79//79 
f 79//79 90//90 91//91 
f 79//79 91//91 80//80 
f 80//80 91//91 92//92 
f 80//80 92//92 81//81 
f 81//81 92//92 82//82 
f 81//81 82//82 73//73 
f 83//83 93//93 84//84 
f 84//84 93//93 85//85 
f 85//85 93//93 94//94 
f 85//85 94//94 86//86 
f 86//86 94//94 87//87 
f 87//87 95//95 88//88 
f 88//88 95//95 89//89 
f 89//89 95//95 96//96 
f 89//89 96//96 90//90 
f 90//90 96//96 91//91 
f 91//91 82//82 92//92 
f 83//83 97//97 93//93 
f 93//93 98//98 94//94 
f 94//94 98//98 87//87 
f 87//87 98//98 95//95 
f 95//95 99//99 96//96 
f 96//96 99//99 91//91 
f 91//91 99//99 100//100 
f 91//91 100//100 82//82 
f 82//82 100//100 97//97 
f 82//82 97//97 83//83 
f 97//97 101//101 93//93 
f 93//93 101//101 102//102 
f 93//93 102//102 98//98 
f 98//98 102//102 95//95 
f 95//95 102//102 103//103 
f 95//95 103//103 99//99 
f 99//99 103//103 100//100 
f 100//100 103//103 97//97 
f 97//97 103//103 101//101 
f 101//101 103//103 102//102 
# 202 faces

